HIERARCHY
ROOT hip
{
  OFFSET 0 0 0
  CHANNELS 6 Xposition Yposition Zposition Zrotation Yrotation Xrotation
  JOINT abdomen
  {
    OFFSET 0 20.6881 -0.73152
    CHANNELS 3 Zrotation Xrotation Yrotation
    JOINT chest
    {
      OFFSET 0 11.7043 -0.48768
      CHANNELS 3 Zrotation Xrotation Yrotation
      JOINT neck
      {
        OFFSET 0 22.1894 -2.19456
        CHANNELS 3 Zrotation Xrotation Yrotation
        JOINT head
        {
          OFFSET -0.24384 7.07133 1.2192
          CHANNELS 3 Zrotation Xrotation Yrotation
          JOINT leftEye
          {
            OFFSET 4.14528 8.04674 8.04672
            CHANNELS 3 Zrotation Xrotation Yrotation
            End Site
            {
              OFFSET 1 0 0
            }
          }
          JOINT rightEye
          {
            OFFSET -3.6576 8.04674 8.04672
            CHANNELS 3 Zrotation Xrotation Yrotation
            End Site
            {
              OFFSET 1 0 0
            }
          }
        }
      }
      JOINT rCollar
      {
        OFFSET -2.68224 19.2634 -4.8768
        CHANNELS 3 Zrotation Xrotation Yrotation
        JOINT rShldr
        {
          OFFSET -8.77824 -1.95073 1.46304
          CHANNELS 3 Zrotation Xrotation Yrotation
          JOINT rForeArm
          {
            OFFSET -28.1742 -1.7115 0.48768
            CHANNELS 3 Zrotation Xrotation Yrotation
            JOINT rHand
            {
              OFFSET -22.5879 0.773209 7.07136
              CHANNELS 3 Zrotation Xrotation Yrotation
              JOINT rThumb1
              {
                OFFSET -1.2192 -0.487915 3.41376
                CHANNELS 3 Zrotation Xrotation Yrotation
                JOINT rThumb2
                {
                  OFFSET -3.37035 -0.52449 3.41376
                  CHANNELS 3 Zrotation Xrotation Yrotation
                  End Site
                  {
                    OFFSET -1.78271 -1.18214 1.43049
                  }
                }
              }
              JOINT rIndex1
              {
                OFFSET -7.75947 0.938293 5.60832
                CHANNELS 3 Zrotation Xrotation Yrotation
                JOINT rIndex2
                {
                  OFFSET -2.54057 -0.884171 1.56538
                  CHANNELS 3 Zrotation Xrotation Yrotation
                  End Site
                  {
                    OFFSET -1.62519 -0.234802 1.16502
                  }
                }
              }
              JOINT rMid1
              {
                OFFSET -8.24714 1.18213 3.41376
                CHANNELS 3 Zrotation Xrotation Yrotation
                JOINT rMid2
                {
                  OFFSET -3.10165 -0.590103 1.0647
                  CHANNELS 3 Zrotation Xrotation Yrotation
                  End Site
                  {
                    OFFSET -2.48547 -0.328903 0.83742
                  }
                }
              }
              JOINT rRing1
              {
                OFFSET -8.82822 0.546677 1.51678
                CHANNELS 3 Zrotation Xrotation Yrotation
                JOINT rRing2
                {
                  OFFSET -2.60934 -0.819778 -0.0198488
                  CHANNELS 3 Zrotation Xrotation Yrotation
                  End Site
                  {
                    OFFSET -2.33842 -0.294052 0.168128
                  }
                }
              }
              JOINT rPinky1
              {
                OFFSET -8.27202 -0.0477905 -0.4584
                CHANNELS 3 Zrotation Xrotation Yrotation
                JOINT rPinky2
                {
                  OFFSET -1.82734 -0.647385 -0.700984
                  CHANNELS 3 Zrotation Xrotation Yrotation
                  End Site
                  {
                    OFFSET -1.69225 -0.51767 -0.607171
                  }
                }
              }
            }
          }
        }
      }
      JOINT lCollar
      {
        OFFSET 2.68224 19.2634 -4.8768
        CHANNELS 3 Zrotation Xrotation Yrotation
        JOINT lShldr
        {
          OFFSET 8.77824 -1.95073 1.46304
          CHANNELS 3 Zrotation Xrotation Yrotation
          JOINT lForeArm
          {
            OFFSET 28.1742 -1.7115 0.48768
            CHANNELS 3 Zrotation Xrotation Yrotation
            JOINT lHand
            {
              OFFSET 22.5879 0.773209 7.07136
              CHANNELS 3 Zrotation Xrotation Yrotation
              JOINT lThumb1
              {
                OFFSET 1.2192 -0.487915 3.41376
                CHANNELS 3 Zrotation Xrotation Yrotation
                JOINT lThumb2
                {
                  OFFSET 3.37035 -0.52449 3.41376
                  CHANNELS 3 Zrotation Xrotation Yrotation
                  End Site
                  {
                    OFFSET 1.78271 -1.18214 1.43049
                  }
                }
              }
              JOINT lIndex1
              {
                OFFSET 7.75947 0.938293 5.60832
                CHANNELS 3 Zrotation Xrotation Yrotation
                JOINT lIndex2
                {
                  OFFSET 2.54057 -0.884171 1.56538
                  CHANNELS 3 Zrotation Xrotation Yrotation
                  End Site
                  {
                    OFFSET 1.62519 -0.234802 1.16502
                  }
                }
              }
              JOINT lMid1
              {
                OFFSET 8.24714 1.18213 3.41376
                CHANNELS 3 Zrotation Xrotation Yrotation
                JOINT lMid2
                {
                  OFFSET 3.10165 -0.590103 1.0647
                  CHANNELS 3 Zrotation Xrotation Yrotation
                  End Site
                  {
                    OFFSET 2.48547 -0.328903 0.83742
                  }
                }
              }
              JOINT lRing1
              {
                OFFSET 8.82822 0.546677 1.51678
                CHANNELS 3 Zrotation Xrotation Yrotation
                JOINT lRing2
                {
                  OFFSET 2.60934 -0.819778 -0.0198488
                  CHANNELS 3 Zrotation Xrotation Yrotation
                  End Site
                  {
                    OFFSET 2.33842 -0.294052 0.168128
                  }
                }
              }
              JOINT lPinky1
              {
                OFFSET 8.27202 -0.0477905 -0.4584
                CHANNELS 3 Zrotation Xrotation Yrotation
                JOINT lPinky2
                {
                  OFFSET 1.82734 -0.647385 -0.700984
                  CHANNELS 3 Zrotation Xrotation Yrotation
                  End Site
                  {
                    OFFSET 1.69225 -0.51767 -0.607171
                  }
                }
              }
            }
          }
        }
      }
    }
  }
  JOINT rButtock
  {
    OFFSET -8.77824 4.35084 1.2192
    CHANNELS 3 Zrotation Xrotation Yrotation
    JOINT rThigh
    {
      OFFSET 0 -1.70687 -2.19456
      CHANNELS 3 Zrotation Xrotation Yrotation
      JOINT rShin
      {
        OFFSET 0 -36.8199 0.73152
        CHANNELS 3 Zrotation Xrotation Yrotation
        JOINT rFoot
        {
          OFFSET 0.73152 -45.1104 -5.12064
          CHANNELS 3 Zrotation Xrotation Yrotation
          End Site
          {
            OFFSET -1.1221 -3.69964 12.103
          }
        }
      }
    }
  }
  JOINT lButtock
  {
    OFFSET 8.77824 4.35084 1.2192
    CHANNELS 3 Zrotation Xrotation Yrotation
    JOINT lThigh
    {
      OFFSET 0 -1.70687 -2.19456
      CHANNELS 3 Zrotation Xrotation Yrotation
      JOINT lShin
      {
        OFFSET 0 -36.8199 0.73152
        CHANNELS 3 Zrotation Xrotation Yrotation
        JOINT lFoot
        {
          OFFSET -0.73152 -45.1104 -5.12064
          CHANNELS 3 Zrotation Xrotation Yrotation
          End Site
          {
            OFFSET 1.1221 -3.69964 12.103
          }
        }
      }
    }
  }
}
MOTION
Frames:	6
Frame Time:	0.00833333
0.507205 85.2591 3.66395 0.0 0.0 0.0 0.798874 -0.00440622 0.0224362 0.220509 -0.00586818 0.0382071 2.30006e-14 -1.59028e-15 6.21203e-17 6.91118e-14 3.18055e-15 2.08103e-16 -0.0 0.0 0.0 -0.0 0.0 0.0 1.15285e-14 -6.0179e-18 1.98785e-16 2.44155e-13 -2.04997e-16 2.18663e-15 4.17438e-12 -1.25075e-12 -2.54444e-14 4.77418e-11 1.23125e-12 2.00375e-13 1.12623e-10 -4.2844e-14 3.84847e-13 1.94489e-10 -7.31528e-14 6.55989e-13 1.12629e-10 -4.13472e-14 3.81667e-13 7.73091 5.47488 0.417314 1.12623e-10 -4.29375e-14 3.91208e-13 2.90554 0.965183 0.102902 1.12635e-10 -4.24405e-14 3.84847e-13 10.2786 0.731801 0.0259123 1.12613e-10 -3.97569e-14 3.94389e-13 2.22167 -0.733487 -0.20892 1.14319e-14 -6.21202e-18 -1.49089e-16 2.40225e-13 -4.09993e-16 5.96354e-16 4.16951e-12 1.24439e-12 -2.54444e-14 4.77497e-11 -1.27451e-12 2.22639e-13 1.12632e-10 -6.44355e-14 3.78486e-13 1.94521e-10 -1.145e-13 6.51219e-13 1.12627e-10 -6.20208e-14 3.88028e-13 -7.73091 5.47488 -0.417314 1.12633e-10 -6.4605e-14 3.78486e-13 -2.90554 0.965183 -0.102902 1.12626e-10 -6.44062e-14 3.78486e-13 -10.2786 0.731801 -0.0259123 1.12637e-10 -6.2816e-14 3.72125e-13 -2.22167 -0.733487 0.20892 -2.03217e-16 0.0 -3.88251e-19 1.09573 -5.06523 -0.0944621 -0.00072378 3.6222 0.0100306 -0.496131 1.44299 0.0858502 2.03217e-16 0.0 3.88251e-19 0.121039 -2.06714 0.0162439 0.00881399 -1.80834 0.0738127 0.483955 3.87532 -0.133671
0.167347 84.4542 2.151 -1.6963 0.4056 7.0328 1.52945 -2.42763 0.0821154 0.884847 -0.389085 0.0607425 -3.6059 -1.05958 -2.46165 3.77589 5.87693 -4.3305 -0.0 0.0 0.0 -0.0 0.0 0.0 -1.57232e-14 1.45658e-14 3.87281e-15 22.0212 5.88323 -0.424821 -3.0279 -1.20173 4.90155 0.145544 8.48123 1.14536 5.05388e-10 -4.09661e-10 1.67721e-10 8.77295e-10 -7.019e-10 2.78628e-10 5.05393e-10 -4.09662e-10 1.67718e-10 7.73091 5.47488 0.417314 5.05389e-10 -4.09666e-10 1.67729e-10 2.90554 0.965183 0.102902 5.05397e-10 -4.09664e-10 1.67721e-10 10.2786 0.731801 0.0259123 5.05378e-10 -4.09661e-10 1.67729e-10 2.22167 -0.733487 -0.20892 -1.57984e-14 1.45658e-14 3.57385e-15 -23.3318 8.8974 -0.604503 2.25581 -0.808356 -3.72359 -0.108231 7.30873 -0.997246 -2.9672e-10 4.16061e-11 3.56559e-10 -5.05453e-10 8.13626e-11 6.23801e-10 -2.96726e-10 4.16101e-11 3.56569e-10 -7.73091 5.47488 -0.417314 -2.96719e-10 4.16076e-11 3.5656e-10 -2.90554 0.965183 -0.102902 -2.96726e-10 4.16083e-11 3.56559e-10 -10.2786 0.731801 -0.0259123 -2.96717e-10 4.16097e-11 3.56553e-10 -2.22167 -0.733487 0.20892 -2.03217e-16 0.0 -3.88251e-19 1.2406 -5.09082 2.28561 0.00109057 4.26673 0.0285807 -0.534406 -0.65937 -2.32552 2.03217e-16 0.0 3.88251e-19 1.1785 -4.04516 -5.63917 0.00198191 1.9807 -0.0248569 0.832011 0.229845 4.30188
0.171907 84.4547 2.15219 -1.67 0.3728 7.0277 2.30798 -4.98911 0.146213 1.58745 -0.793336 0.0845744 -7.51881 -2.17465 -5.06778 8.75101 11.978 -9.06185 -0.0 0.0 0.0 -0.0 0.0 0.0 -4.50845e-14 3.1231e-14 7.79298e-15 45.3969 12.094 -0.888973 -6.00731 -2.4435 10.092 -0.0855764 17.453 2.44513 9.45125e-10 -8.63635e-10 3.50612e-10 1.64165e-09 -1.47965e-09 5.82217e-10 9.45129e-10 -8.63638e-10 3.5061e-10 7.73091 5.47488 0.417314 9.45128e-10 -8.63645e-10 3.50623e-10 2.90554 0.965183 0.102902 9.4513e-10 -8.63641e-10 3.50613e-10 10.2786 0.731801 0.0259123 9.45115e-10 -8.63639e-10 3.5062e-10 2.22167 -0.733487 -0.20892 -4.51357e-14 3.12315e-14 7.55071e-15 -47.7822 18.3053 -1.29606 4.52717 -1.65184 -7.66337 0.0628378 15.0246 -2.10647 -7.52373e-10 8.62825e-11 7.51766e-10 -1.2846e-09 1.69147e-10 1.31531e-09 -7.5238e-10 8.62886e-11 7.51777e-10 -7.73091 5.47488 -0.417314 -7.52372e-10 8.6286e-11 7.51768e-10 -2.90554 0.965183 -0.102902 -7.52379e-10 8.62872e-11 7.51766e-10 -10.2786 0.731801 -0.0259123 -7.52372e-10 8.62884e-11 7.51761e-10 -2.22167 -0.733487 0.20892 -2.03217e-16 0.0 -3.88251e-19 1.39616 -5.10827 4.80084 0.00255418 4.94792 0.0482354 -0.767247 -2.87303 -4.8803 2.03217e-16 0.0 3.88251e-19 1.8733 -6.05021 -11.6555 0.00895981 5.98521 -0.129778 1.81164 -3.57782 9.0067
0.168279 84.4531 2.15247 -1.6794 0.3364 7.0293 3.00586 -7.27405 0.202886 2.21443 -1.15552 0.105831 -11.0904 -3.15527 -7.39496 14.0727 17.2189 -13.5407 -0.0 0.0 0.0 -0.0 0.0 0.0 -7.02268e-14 4.37093e-14 1.12209e-14 66.3362 17.6457 -1.33036 -8.47341 -3.49981 14.7295 -0.672424 25.4008 3.7627 1.29092e-09 -1.2289e-09 5.02392e-10 2.24291e-09 -2.10555e-09 8.34571e-10 1.29092e-09 -1.2289e-09 5.0239e-10 7.73091 5.47488 0.417314 1.29092e-09 -1.22891e-09 5.02404e-10 2.90554 0.965183 0.102902 1.29092e-09 -1.22891e-09 5.02393e-10 10.2786 0.731801 0.0259123 1.29091e-09 -1.2289e-09 5.02399e-10 2.22167 -0.733487 -0.20892 -7.02588e-14 4.37099e-14 1.10197e-14 -69.3752 26.6796 -2.00526 6.45421 -2.38414 -11.1794 0.488638 21.8986 -3.19842 -1.11542e-09 1.24947e-10 1.06892e-09 -1.9054e-09 2.44317e-10 1.8701e-09 -1.11543e-09 1.24954e-10 1.06893e-09 -7.73091 5.47488 -0.417314 -1.11542e-09 1.24952e-10 1.06892e-09 -2.90554 0.965183 -0.102902 -1.11543e-09 1.24954e-10 1.06892e-09 -10.2786 0.731801 -0.0259123 -1.11543e-09 1.24955e-10 1.06892e-09 -2.22167 -0.733487 0.20892 -2.03217e-16 0.0 -3.88251e-19 1.53632 -5.11537 7.04615 0.00346136 5.55579 0.0657923 -1.14182 -4.82782 -7.17333 2.03217e-16 0.0 3.88251e-19 2.13351 -7.70944 -17.0666 0.0277961 9.55871 -0.225205 3.21446 -6.87254 13.2693
0.163261 84.4526 2.15268 -1.7124 0.2876 7.0259 3.49103 -8.86769 0.239653 2.65168 -1.41252 0.120633 -13.6155 -3.82224 -9.01512 18.2915 20.7022 -16.8637 -0.0 0.0 0.0 -0.0 0.0 0.0 -8.48217e-14 4.57201e-14 1.3418e-14 80.9894 21.5535 -1.66215 -10.0849 -4.19317 17.9609 -1.32737 30.8297 4.81149 1.40185e-09 -1.37238e-09 5.76393e-10 2.43644e-09 -2.35186e-09 9.58837e-10 1.40186e-09 -1.37238e-09 5.7639e-10 7.73091 5.47488 0.417314 1.40186e-09 -1.37239e-09 5.76406e-10 2.90554 0.965183 0.102902 1.40185e-09 -1.37239e-09 5.76394e-10 10.2786 0.731801 0.0259123 1.40184e-09 -1.37239e-09 5.76399e-10 2.22167 -0.733487 -0.20892 -8.48466e-14 4.57205e-14 1.32192e-14 -84.2847 32.4821 -2.57612 7.74095 -2.87753 -13.628 0.961787 26.6938 -4.05222 -1.24697e-09 1.48583e-10 1.19094e-09 -2.13032e-09 2.87952e-10 2.08312e-09 -1.24698e-09 1.48589e-10 1.19095e-09 -7.73091 5.47488 -0.417314 -1.24697e-09 1.48587e-10 1.19094e-09 -2.90554 0.965183 -0.102902 -1.24697e-09 1.48589e-10 1.19094e-09 -10.2786 0.731801 -0.0259123 -1.24697e-09 1.4859e-10 1.19094e-09 -2.22167 -0.733487 0.20892 -2.03217e-16 0.0 -3.88251e-19 1.63412 -5.11546 8.61646 0.00386647 5.98036 0.0780193 -1.49596 -6.17203 -8.78468 2.03217e-16 0.0 3.88251e-19 2.11942 -8.76751 -20.8642 0.0483343 12.0547 -0.293507 4.48872 -9.08201 16.3058
0.159675 84.4521 2.15269 -1.7415 0.2694 7.0307 3.66707 -9.49319 0.247356 2.82364 -1.52091 0.126857 -14.5911 -4.06314 -9.63855 20.0392 22.0088 -18.2027 -0.0 0.0 0.0 -0.0 0.0 0.0 -8.49311e-14 2.67961e-14 1.41203e-14 86.7461 23.1789 -1.79794 -10.6811 -4.44653 19.204 -1.62239 32.7232 5.21935 1.13221e-09 -1.16595e-09 5.35898e-10 1.96961e-09 -1.99952e-09 8.95324e-10 1.13222e-09 -1.16596e-09 5.35892e-10 7.73091 5.47488 0.417314 1.13222e-09 -1.16597e-09 5.35909e-10 2.90554 0.965183 0.102902 1.13221e-09 -1.16596e-09 5.35898e-10 10.2786 0.731801 0.0259123 1.13221e-09 -1.16596e-09 5.35904e-10 2.22167 -0.733487 -0.20892 -8.49655e-14 2.67955e-14 1.38532e-14 -90.0934 34.6932 -2.80156 8.22669 -3.06321 -14.5757 1.19406 28.5932 -4.41801 -1.00422e-09 1.48402e-10 9.9598e-10 -1.71534e-09 2.81324e-10 1.74095e-09 -1.00423e-09 1.48402e-10 9.95993e-10 -7.73091 5.47488 -0.417314 -1.00422e-09 1.48401e-10 9.95982e-10 -2.90554 0.965183 -0.102902 -1.00423e-09 1.48404e-10 9.95982e-10 -10.2786 0.731801 -0.0259123 -1.00422e-09 1.48406e-10 9.95979e-10 -2.22167 -0.733487 0.20892 -2.03217e-16 0.0 -3.88251e-19 1.66608 -5.11391 9.24298 0.00396233 6.1479 0.0827164 -1.65506 -6.68687 -9.42119 2.03217e-16 0.0 3.88251e-19 2.06073 -9.15317 -22.3462 0.0585069 13.0396 -0.32093 5.05914 -9.92008 17.5333
